<svg width="17" height="17" viewBox="0 0 17 17" fill="#00000" xmlns="http://www.w3.org/2000/svg">
<path d="M15.9834 1.01675C15.8419 0.875373 15.6653 0.774266 15.4718 0.723842C15.2782 0.673418 15.0748 0.6755 14.8823 0.729874H14.8717L1.37596 4.82487C1.15686 4.88802 0.962123 5.01625 0.81755 5.19257C0.672976 5.36889 0.585394 5.58498 0.566408 5.8122C0.547422 6.03942 0.597928 6.26705 0.711235 6.46492C0.824542 6.66279 0.9953 6.82156 1.20088 6.92019L7.17182 9.82831L10.0757 15.7957C10.166 15.9885 10.3096 16.1513 10.4896 16.2651C10.6695 16.3789 10.8782 16.4387 11.091 16.4377C11.1234 16.4377 11.1557 16.4363 11.1881 16.4335C11.4151 16.4151 11.6311 16.3277 11.807 16.183C11.983 16.0384 12.1105 15.8434 12.1724 15.6242L16.2646 2.12839C16.2646 2.12487 16.2646 2.12136 16.2646 2.11784C16.3197 1.92586 16.3227 1.72268 16.2733 1.52917C16.2238 1.33566 16.1238 1.1588 15.9834 1.01675ZM11.0974 15.3021L11.0938 15.312V15.3071L8.27713 9.52034L11.6521 6.14534C11.7532 6.039 11.8087 5.89739 11.8068 5.75071C11.8049 5.60403 11.7458 5.46389 11.6421 5.36016C11.5384 5.25644 11.3982 5.19733 11.2515 5.19546C11.1049 5.19358 10.9632 5.24907 10.8569 5.35011L7.4819 8.72511L1.69307 5.90839H1.68815H1.69799L15.1874 1.81269L11.0974 15.3021Z" />
</svg>