<svg width="20" height="18" viewBox="0 0 20 18" fill="none" xmlns="http://www.w3.org/2000/svg">
<path d="M18.9031 1.60621C18.6709 1.37401 18.3953 1.18981 18.0919 1.06414C17.7886 0.938463 17.4635 0.873779 17.1351 0.873779C16.8068 0.873779 16.4816 0.938463 16.1783 1.06414C15.8749 1.18981 15.5993 1.37401 15.3671 1.60621C15.1349 1.83837 14.9507 2.11399 14.8251 2.41734C14.6994 2.72069 14.6347 3.04583 14.6347 3.37418C14.6347 3.70254 14.6994 4.02767 14.8251 4.33102C14.9507 4.63437 15.1349 4.91 15.3671 5.14215C15.3898 5.16481 15.414 5.18668 15.4375 5.20856L13.357 9.07262C12.7227 8.91794 12.0531 9.016 11.4898 9.34606L9.91323 7.7695C10.2234 7.24526 10.3315 6.62582 10.2172 6.02751C10.103 5.42921 9.77421 4.8932 9.29268 4.52016C8.81115 4.14712 8.21 3.96271 7.60212 4.00158C6.99424 4.04044 6.42146 4.29989 5.99136 4.73121C5.75915 4.96337 5.57495 5.23899 5.44928 5.54234C5.32361 5.84569 5.25892 6.17083 5.25892 6.49918C5.25892 6.82754 5.32361 7.15267 5.44928 7.45602C5.57495 7.75937 5.75915 8.035 5.99136 8.26715C6.01401 8.28981 6.03745 8.31168 6.06089 8.33356L3.98042 12.1984C3.56281 12.0956 3.12575 12.1023 2.71149 12.2178C2.29722 12.3333 1.91975 12.5537 1.61558 12.8578C1.266 13.2074 1.02796 13.6529 0.931541 14.1378C0.835124 14.6228 0.884666 15.1254 1.0739 15.5822C1.26314 16.039 1.58357 16.4294 1.99468 16.7041C2.40579 16.9787 2.88912 17.1253 3.38355 17.1253C3.87797 17.1253 4.3613 16.9787 4.77241 16.7041C5.18352 16.4294 5.50395 16.039 5.69319 15.5822C5.88243 15.1254 5.93197 14.6228 5.83555 14.1378C5.73913 13.6529 5.50109 13.2074 5.15151 12.8578C5.12886 12.8351 5.10464 12.8132 5.0812 12.7914L7.16167 8.92731C7.35729 8.97522 7.55793 8.99961 7.75933 8.99996C8.20567 9.00051 8.64402 8.88155 9.02886 8.65543L10.6054 10.232C10.3681 10.6348 10.2484 11.0961 10.2601 11.5635C10.2718 12.0309 10.4143 12.4857 10.6714 12.8762C10.9286 13.2666 11.2901 13.5772 11.7149 13.7725C12.1397 13.9678 12.6107 14.0401 13.0745 13.9812C13.5383 13.9222 13.9763 13.7344 14.3387 13.439C14.7012 13.1436 14.9735 12.7525 15.1248 12.3102C15.2761 11.8678 15.3003 11.3918 15.1947 10.9364C15.0891 10.4809 14.8579 10.0642 14.5273 9.73356C14.5046 9.7109 14.4812 9.68903 14.4578 9.66715L16.5382 5.80309C16.7334 5.85066 16.9335 5.87479 17.1343 5.87496C17.6287 5.87489 18.1119 5.72825 18.5229 5.45359C18.934 5.17893 19.2543 4.78858 19.4436 4.33188C19.6328 3.87517 19.6824 3.37262 19.586 2.88775C19.4897 2.40288 19.2517 1.95745 18.9023 1.60778L18.9031 1.60621ZM4.26714 15.5101C4.03259 15.7446 3.71451 15.8762 3.38288 15.8762C3.05125 15.8761 2.73323 15.7443 2.49878 15.5097C2.26433 15.2752 2.13266 14.9571 2.13274 14.6255C2.13281 14.2938 2.26462 13.9758 2.49917 13.7414C2.61531 13.6253 2.75317 13.5332 2.9049 13.4704C3.05662 13.4076 3.21922 13.3753 3.38343 13.3753C3.54764 13.3754 3.71023 13.4077 3.86192 13.4706C4.01362 13.5335 4.15144 13.6256 4.26753 13.7418C4.38362 13.8579 4.47569 13.9958 4.5385 14.1475C4.6013 14.2992 4.63361 14.4618 4.63357 14.626C4.63354 14.7902 4.60116 14.9528 4.53829 15.1045C4.47541 15.2562 4.38328 15.394 4.26714 15.5101ZM6.87495 7.38512C6.75885 7.26904 6.66675 7.13123 6.60391 6.97956C6.54108 6.82788 6.50873 6.66531 6.50873 6.50114C6.50873 6.33696 6.54108 6.17439 6.60391 6.02272C6.66675 5.87104 6.75885 5.73323 6.87495 5.61715C7.04978 5.44236 7.27251 5.32334 7.51498 5.27513C7.75744 5.22692 8.00876 5.2517 8.23715 5.34631C8.46555 5.44093 8.66075 5.60115 8.79809 5.8067C8.93543 6.01226 9.00873 6.25392 9.00873 6.50114C9.00873 6.74835 8.93543 6.99001 8.79809 7.19557C8.66075 7.40112 8.46555 7.56134 8.23715 7.65596C8.00876 7.75058 7.75744 7.77535 7.51498 7.72714C7.27251 7.67893 7.04978 7.55991 6.87495 7.38512ZM13.6437 12.3851C13.4093 12.6196 13.0913 12.7513 12.7597 12.7513C12.4282 12.7513 12.1102 12.6196 11.8757 12.3851C11.6413 12.1507 11.5096 11.8327 11.5096 11.5011C11.5096 11.1696 11.6413 10.8516 11.8757 10.6172C12.1102 10.3827 12.4282 10.251 12.7597 10.251C13.0913 10.251 13.4093 10.3827 13.6437 10.6172C13.8781 10.8516 14.0099 11.1696 14.0099 11.5011C14.0099 11.8327 13.8781 12.1507 13.6437 12.3851ZM18.0187 4.26012C17.7839 4.49446 17.4657 4.62595 17.134 4.62566C16.8023 4.62537 16.4843 4.49332 16.2499 4.25856C16.0156 4.0238 15.8841 3.70556 15.8844 3.37386C15.8847 3.04215 16.0168 2.72415 16.2515 2.48981C16.3677 2.37372 16.5055 2.28165 16.6572 2.21884C16.809 2.15604 16.9716 2.12373 17.1358 2.12376C17.3 2.1238 17.4626 2.15618 17.6143 2.21905C17.766 2.28193 17.9038 2.37406 18.0199 2.4902C18.136 2.60634 18.228 2.7442 18.2908 2.89592C18.3536 3.04765 18.386 3.21025 18.3859 3.37446C18.3859 3.53867 18.3535 3.70126 18.2906 3.85295C18.2278 4.00465 18.1356 4.14247 18.0195 4.25856L18.0187 4.26012Z" fill="#E02424"/>
</svg>
