<svg width="15" height="14" viewBox="0 0 17 14" fill="none" xmlns="http://www.w3.org/2000/svg">
<path d="M5.39605 8.43292C5.51332 8.55019 5.57921 8.70925 5.57921 8.8751C5.57921 9.04096 5.51332 9.20002 5.39605 9.31729C5.27877 9.43457 5.11971 9.50045 4.95386 9.50045C4.78801 9.50045 4.62895 9.43457 4.51167 9.31729L0.761673 5.56729C0.703563 5.50925 0.657464 5.44032 0.626011 5.36444C0.594558 5.28857 0.578369 5.20724 0.578369 5.1251C0.578369 5.04297 0.594558 4.96164 0.626011 4.88577C0.657464 4.80989 0.703563 4.74096 0.761673 4.68292L4.51167 0.932916C4.62895 0.81564 4.78801 0.749756 4.95386 0.749756C5.11971 0.749756 5.27877 0.81564 5.39605 0.932916C5.51332 1.05019 5.57921 1.20925 5.57921 1.3751C5.57921 1.54096 5.51332 1.70002 5.39605 1.81729L2.08745 5.1251L5.39605 8.43292ZM8.70386 4.5001H6.46245L9.14605 1.81729C9.26332 1.70002 9.32921 1.54096 9.32921 1.3751C9.32921 1.20925 9.26332 1.05019 9.14605 0.932916C9.02877 0.81564 8.86971 0.749756 8.70386 0.749756C8.53801 0.749756 8.37895 0.81564 8.26167 0.932916L4.51167 4.68292C4.45356 4.74096 4.40746 4.80989 4.37601 4.88577C4.34456 4.96164 4.32837 5.04297 4.32837 5.1251C4.32837 5.20724 4.34456 5.28857 4.37601 5.36444C4.40746 5.44032 4.45356 5.50925 4.51167 5.56729L8.26167 9.31729C8.31974 9.37536 8.38868 9.42142 8.46455 9.45285C8.54042 9.48428 8.62174 9.50045 8.70386 9.50045C8.78598 9.50045 8.8673 9.48428 8.94317 9.45285C9.01904 9.42142 9.08798 9.37536 9.14605 9.31729C9.20412 9.25922 9.25018 9.19028 9.28161 9.11441C9.31303 9.03854 9.32921 8.95723 9.32921 8.8751C9.32921 8.79298 9.31303 8.71166 9.28161 8.63579C9.25018 8.55992 9.20412 8.49099 9.14605 8.43292L6.46245 5.7501H8.70386C10.5266 5.75217 12.2741 6.47716 13.5629 7.76603C14.8518 9.05489 15.5768 10.8024 15.5789 12.6251C15.5789 12.7909 15.6447 12.9498 15.7619 13.067C15.8791 13.1843 16.0381 13.2501 16.2039 13.2501C16.3696 13.2501 16.5286 13.1843 16.6458 13.067C16.763 12.9498 16.8289 12.7909 16.8289 12.6251C16.8266 10.4709 15.9698 8.40561 14.4466 6.88237C12.9234 5.35913 10.858 4.50238 8.70386 4.5001Z" fill="#FFC700"/>
</svg>
