<svg width="16" height="17" viewBox="0 0 16 17" fill="none" xmlns="http://www.w3.org/2000/svg">
<path d="M15.3198 2.75H12.1948V2.125C12.1948 1.62772 11.9973 1.15081 11.6456 0.799175C11.294 0.447544 10.8171 0.25 10.3198 0.25H6.56982C6.07254 0.25 5.59563 0.447544 5.244 0.799175C4.89237 1.15081 4.69482 1.62772 4.69482 2.125V2.75H1.56982C1.40406 2.75 1.24509 2.81585 1.12788 2.93306C1.01067 3.05027 0.944824 3.20924 0.944824 3.375C0.944824 3.54076 1.01067 3.69973 1.12788 3.81694C1.24509 3.93415 1.40406 4 1.56982 4H2.19482V15.25C2.19482 15.5815 2.32652 15.8995 2.56094 16.1339C2.79536 16.3683 3.1133 16.5 3.44482 16.5H13.4448C13.7763 16.5 14.0943 16.3683 14.3287 16.1339C14.5631 15.8995 14.6948 15.5815 14.6948 15.25V4H15.3198C15.4856 4 15.6446 3.93415 15.7618 3.81694C15.879 3.69973 15.9448 3.54076 15.9448 3.375C15.9448 3.20924 15.879 3.05027 15.7618 2.93306C15.6446 2.81585 15.4856 2.75 15.3198 2.75ZM5.94482 2.125C5.94482 1.95924 6.01067 1.80027 6.12788 1.68306C6.24509 1.56585 6.40406 1.5 6.56982 1.5H10.3198C10.4856 1.5 10.6446 1.56585 10.7618 1.68306C10.879 1.80027 10.9448 1.95924 10.9448 2.125V2.75H5.94482V2.125ZM13.4448 15.25H3.44482V4H13.4448V15.25ZM7.19482 7.125V12.125C7.19482 12.2908 7.12898 12.4497 7.01177 12.5669C6.89456 12.6842 6.73558 12.75 6.56982 12.75C6.40406 12.75 6.24509 12.6842 6.12788 12.5669C6.01067 12.4497 5.94482 12.2908 5.94482 12.125V7.125C5.94482 6.95924 6.01067 6.80027 6.12788 6.68306C6.24509 6.56585 6.40406 6.5 6.56982 6.5C6.73558 6.5 6.89456 6.56585 7.01177 6.68306C7.12898 6.80027 7.19482 6.95924 7.19482 7.125ZM10.9448 7.125V12.125C10.9448 12.2908 10.879 12.4497 10.7618 12.5669C10.6446 12.6842 10.4856 12.75 10.3198 12.75C10.1541 12.75 9.99509 12.6842 9.87788 12.5669C9.76067 12.4497 9.69482 12.2908 9.69482 12.125V7.125C9.69482 6.95924 9.76067 6.80027 9.87788 6.68306C9.99509 6.56585 10.1541 6.5 10.3198 6.5C10.4856 6.5 10.6446 6.56585 10.7618 6.68306C10.879 6.80027 10.9448 6.95924 10.9448 7.125Z" fill="#B8B8B8"/>
</svg>
