<svg width="18" height="19" viewBox="0 0 18 19" fill="none" xmlns="http://www.w3.org/2000/svg">
<path d="M17.2041 1.24059C17.0469 1.0835 16.8507 0.971163 16.6357 0.915136C16.4206 0.859109 16.1945 0.861423 15.9807 0.921839H15.969L0.973666 5.47184C0.730225 5.542 0.513849 5.68447 0.353213 5.88039C0.192576 6.0763 0.0952616 6.3164 0.074166 6.56887C0.0530704 6.82134 0.109189 7.07426 0.235086 7.29411C0.360982 7.51397 0.550713 7.69038 0.779135 7.79996L7.41351 11.0312L10.6401 17.6617C10.7404 17.8758 10.9 18.0568 11.0999 18.1832C11.2998 18.3096 11.5317 18.3761 11.7682 18.375C11.8041 18.375 11.8401 18.3734 11.876 18.3703C12.1283 18.3498 12.3683 18.2528 12.5638 18.092C12.7593 17.9313 12.9009 17.7146 12.9698 17.4711L17.5166 2.47574C17.5166 2.47184 17.5166 2.46793 17.5166 2.46403C17.5778 2.25072 17.5811 2.02496 17.5262 1.80995C17.4713 1.59493 17.3601 1.39842 17.2041 1.24059ZM11.7752 17.1132L11.7713 17.1242V17.1187L8.64164 10.689L12.3916 6.93903C12.5039 6.82086 12.5656 6.66352 12.5635 6.50054C12.5614 6.33757 12.4957 6.18185 12.3805 6.0666C12.2652 5.95135 12.1095 5.88568 11.9465 5.88359C11.7835 5.88151 11.6262 5.94317 11.508 6.05543L7.75804 9.80543L1.32601 6.67574H1.32054H1.33148L16.3198 2.12496L11.7752 17.1132Z" fill="#656565"/>
</svg>
