<svg width="14" height="14" viewBox="0 0 14 14" fill="none" xmlns="http://www.w3.org/2000/svg">
<path d="M13.75 1.3749V4.7499C13.75 4.89908 13.6907 5.04216 13.5852 5.14765C13.4798 5.25314 13.3367 5.3124 13.1875 5.3124H9.8125C9.66332 5.3124 9.52024 5.25314 9.41475 5.14765C9.30926 5.04216 9.25 4.89908 9.25 4.7499C9.25 4.60071 9.30926 4.45764 9.41475 4.35215C9.52024 4.24666 9.66332 4.1874 9.8125 4.1874H11.8298L10.8011 3.15873C9.75567 2.10854 8.33627 1.51605 6.85445 1.51131H6.82281C5.3534 1.50786 3.9417 2.083 2.89305 3.11232C2.78562 3.2126 2.64322 3.26686 2.4963 3.26349C2.34939 3.26012 2.20962 3.19939 2.10691 3.09429C2.0042 2.98919 1.9467 2.84806 1.9467 2.70111C1.94671 2.55415 2.00423 2.41304 2.10695 2.30795C3.37787 1.0658 5.08737 0.37497 6.86446 0.38537C8.64155 0.395769 10.3428 1.10656 11.5991 2.36349L12.625 3.39216V1.3749C12.625 1.22571 12.6843 1.08264 12.7898 0.977152C12.8952 0.871662 13.0383 0.812399 13.1875 0.812399C13.3367 0.812399 13.4798 0.871662 13.5852 0.977152C13.6907 1.08264 13.75 1.22571 13.75 1.3749ZM11.107 10.8875C10.0479 11.9219 8.62379 12.4972 7.1434 12.4885C5.663 12.4798 4.24571 11.8879 3.19891 10.8411L2.17023 9.8124H4.1875C4.33668 9.8124 4.47976 9.75314 4.58525 9.64765C4.69074 9.54216 4.75 9.39908 4.75 9.2499C4.75 9.10071 4.69074 8.95764 4.58525 8.85215C4.47976 8.74666 4.33668 8.6874 4.1875 8.6874H0.8125C0.663316 8.6874 0.520242 8.74666 0.414753 8.85215C0.309263 8.95764 0.25 9.10071 0.25 9.2499V12.6249C0.25 12.7741 0.309263 12.9172 0.414753 13.0226C0.520242 13.1281 0.663316 13.1874 0.8125 13.1874C0.961684 13.1874 1.10476 13.1281 1.21025 13.0226C1.31574 12.9172 1.375 12.7741 1.375 12.6249V10.6076L2.40367 11.6363C3.6582 12.8971 5.362 13.6083 7.14062 13.6135H7.17789C8.94139 13.618 10.6357 12.9276 11.8938 11.6919C11.9965 11.5868 12.054 11.4456 12.054 11.2987C12.054 11.1517 11.9965 11.0106 11.8938 10.9055C11.7911 10.8004 11.6513 10.7397 11.5044 10.7363C11.3575 10.7329 11.2151 10.7872 11.1077 10.8875H11.107Z" fill="white"/>
</svg>
