<svg width="13" height="10" viewBox="0 0 13 10" fill="none" xmlns="http://www.w3.org/2000/svg">
<path d="M3.55566 1C3.55566 0.867392 3.60834 0.740215 3.70211 0.646447C3.79588 0.552679 3.92306 0.5 4.05566 0.5H12.0557C12.1883 0.5 12.3154 0.552679 12.4092 0.646447C12.503 0.740215 12.5557 0.867392 12.5557 1C12.5557 1.13261 12.503 1.25979 12.4092 1.35355C12.3154 1.44732 12.1883 1.5 12.0557 1.5H4.05566C3.92306 1.5 3.79588 1.44732 3.70211 1.35355C3.60834 1.25979 3.55566 1.13261 3.55566 1ZM12.0557 4.5H4.05566C3.92306 4.5 3.79588 4.55268 3.70211 4.64645C3.60834 4.74021 3.55566 4.86739 3.55566 5C3.55566 5.13261 3.60834 5.25979 3.70211 5.35355C3.79588 5.44732 3.92306 5.5 4.05566 5.5H12.0557C12.1883 5.5 12.3154 5.44732 12.4092 5.35355C12.503 5.25979 12.5557 5.13261 12.5557 5C12.5557 4.86739 12.503 4.74021 12.4092 4.64645C12.3154 4.55268 12.1883 4.5 12.0557 4.5ZM12.0557 8.5H4.05566C3.92306 8.5 3.79588 8.55268 3.70211 8.64645C3.60834 8.74021 3.55566 8.86739 3.55566 9C3.55566 9.13261 3.60834 9.25979 3.70211 9.35355C3.79588 9.44732 3.92306 9.5 4.05566 9.5H12.0557C12.1883 9.5 12.3154 9.44732 12.4092 9.35355C12.503 9.25979 12.5557 9.13261 12.5557 9C12.5557 8.86739 12.503 8.74021 12.4092 8.64645C12.3154 8.55268 12.1883 8.5 12.0557 8.5ZM1.30566 0.25C1.15733 0.25 1.01232 0.293987 0.888987 0.376398C0.76565 0.458809 0.66952 0.575943 0.612755 0.712987C0.555989 0.850032 0.541137 1.00083 0.570075 1.14632C0.599014 1.2918 0.670445 1.42544 0.775334 1.53033C0.880224 1.63522 1.01386 1.70665 1.15935 1.73559C1.30483 1.76453 1.45563 1.74968 1.59268 1.69291C1.72972 1.63614 1.84686 1.54001 1.92927 1.41668C2.01168 1.29334 2.05566 1.14834 2.05566 1C2.05566 0.801088 1.97665 0.610322 1.83599 0.46967C1.69534 0.329018 1.50458 0.25 1.30566 0.25ZM1.30566 4.25C1.15733 4.25 1.01232 4.29399 0.888987 4.3764C0.76565 4.45881 0.66952 4.57594 0.612755 4.71299C0.555989 4.85003 0.541137 5.00083 0.570075 5.14632C0.599014 5.2918 0.670445 5.42544 0.775334 5.53033C0.880224 5.63522 1.01386 5.70665 1.15935 5.73559C1.30483 5.76453 1.45563 5.74967 1.59268 5.69291C1.72972 5.63614 1.84686 5.54001 1.92927 5.41668C2.01168 5.29334 2.05566 5.14834 2.05566 5C2.05566 4.80109 1.97665 4.61032 1.83599 4.46967C1.69534 4.32902 1.50458 4.25 1.30566 4.25ZM1.30566 8.25C1.15733 8.25 1.01232 8.29399 0.888987 8.3764C0.76565 8.45881 0.66952 8.57594 0.612755 8.71299C0.555989 8.85003 0.541137 9.00083 0.570075 9.14632C0.599014 9.2918 0.670445 9.42544 0.775334 9.53033C0.880224 9.63522 1.01386 9.70665 1.15935 9.73559C1.30483 9.76453 1.45563 9.74967 1.59268 9.69291C1.72972 9.63614 1.84686 9.54001 1.92927 9.41668C2.01168 9.29334 2.05566 9.14834 2.05566 9C2.05566 8.80109 1.97665 8.61032 1.83599 8.46967C1.69534 8.32902 1.50458 8.25 1.30566 8.25Z" fill="#E02424"/>
</svg>
