<svg width="19" height="17" viewBox="0 0 19 17" fill="none" xmlns="http://www.w3.org/2000/svg">
<path d="M18.204 13.6946L11.3719 1.82974C11.2012 1.53906 10.9575 1.29803 10.6649 1.13057C10.3723 0.9631 10.0411 0.875 9.70396 0.875C9.36685 0.875 9.03559 0.9631 8.74302 1.13057C8.45045 1.29803 8.20672 1.53906 8.03599 1.82974L1.20396 13.6946C1.03969 13.9757 0.953125 14.2955 0.953125 14.6211C0.953125 14.9468 1.03969 15.2665 1.20396 15.5477C1.3725 15.8401 1.61581 16.0825 1.90893 16.2498C2.20205 16.4172 2.53442 16.5036 2.87193 16.5001H16.536C16.8732 16.5033 17.2053 16.4168 17.4981 16.2494C17.7909 16.0821 18.034 15.8399 18.2024 15.5477C18.3669 15.2667 18.4537 14.947 18.454 14.6214C18.4543 14.2957 18.368 13.9759 18.204 13.6946ZM17.1204 14.9219C17.0608 15.0235 16.9753 15.1075 16.8726 15.1651C16.7699 15.2228 16.6537 15.2521 16.536 15.2501H2.87193C2.75418 15.2521 2.638 15.2228 2.53531 15.1651C2.43262 15.1075 2.34712 15.0235 2.28756 14.9219C2.23361 14.8306 2.20515 14.7264 2.20515 14.6204C2.20515 14.5143 2.23361 14.4101 2.28756 14.3188L9.11959 2.45396C9.18035 2.35284 9.26625 2.26917 9.36892 2.21108C9.4716 2.153 9.58756 2.12247 9.70553 2.12247C9.82349 2.12247 9.93945 2.153 10.0421 2.21108C10.1448 2.26917 10.2307 2.35284 10.2915 2.45396L17.1235 14.3188C17.177 14.4104 17.2049 14.5147 17.2043 14.6208C17.2038 14.7269 17.1748 14.8309 17.1204 14.9219ZM9.07896 10.2501V7.12505C9.07896 6.95929 9.14481 6.80032 9.26202 6.68311C9.37923 6.5659 9.5382 6.50005 9.70396 6.50005C9.86972 6.50005 10.0287 6.5659 10.1459 6.68311C10.2631 6.80032 10.329 6.95929 10.329 7.12505V10.2501C10.329 10.4158 10.2631 10.5748 10.1459 10.692C10.0287 10.8092 9.86972 10.8751 9.70396 10.8751C9.5382 10.8751 9.37923 10.8092 9.26202 10.692C9.14481 10.5748 9.07896 10.4158 9.07896 10.2501ZM10.6415 13.0626C10.6415 13.248 10.5865 13.4292 10.4835 13.5834C10.3805 13.7376 10.234 13.8577 10.0627 13.9287C9.89142 13.9996 9.70292 14.0182 9.52107 13.982C9.33921 13.9459 9.17216 13.8566 9.04105 13.7255C8.90994 13.5944 8.82065 13.4273 8.78448 13.2454C8.7483 13.0636 8.76687 12.8751 8.83783 12.7038C8.90878 12.5325 9.02894 12.3861 9.18312 12.283C9.33729 12.18 9.51854 12.1251 9.70396 12.1251C9.9526 12.1251 10.1911 12.2238 10.3669 12.3996C10.5427 12.5755 10.6415 12.8139 10.6415 13.0626Z" fill="#FD8D14"/>
</svg>
