<svg width="20" height="14" viewBox="0 0 20 14" fill="none" xmlns="http://www.w3.org/2000/svg">
<path d="M9.30845 9.33745C10.1461 8.77979 10.7821 7.96736 11.1223 7.0203C11.4625 6.07325 11.4889 5.04185 11.1976 4.07862C10.9063 3.1154 10.3127 2.27149 9.50472 1.67169C8.6967 1.07189 7.7171 0.748047 6.71079 0.748047C5.70448 0.748047 4.72489 1.07189 3.91686 1.67169C3.10884 2.27149 2.51529 3.1154 2.22399 4.07862C1.93269 5.04185 1.95909 6.07325 2.29931 7.0203C2.63952 7.96736 3.27548 8.77979 4.11314 9.33745C2.5979 9.89591 1.30384 10.9293 0.424074 12.2835C0.377837 12.3523 0.34572 12.4295 0.329591 12.5107C0.313462 12.592 0.313643 12.6756 0.330122 12.7568C0.346602 12.838 0.379052 12.915 0.425586 12.9836C0.47212 13.0521 0.53181 13.1107 0.601186 13.1559C0.670562 13.2012 0.74824 13.2322 0.829706 13.2472C0.911171 13.2621 0.994799 13.2607 1.07573 13.2431C1.15666 13.2255 1.23327 13.1919 1.30112 13.1444C1.36897 13.0969 1.4267 13.0364 1.47095 12.9664C2.03844 12.0935 2.81498 11.3763 3.73004 10.8798C4.6451 10.3833 5.6697 10.1232 6.71079 10.1232C7.75188 10.1232 8.77648 10.3833 9.69155 10.8798C10.6066 11.3763 11.3831 12.0935 11.9506 12.9664C12.0423 13.1026 12.1839 13.1973 12.3448 13.23C12.5058 13.2626 12.6731 13.2307 12.8106 13.1409C12.9482 13.0512 13.0449 12.911 13.0799 12.7506C13.1148 12.5901 13.0852 12.4224 12.9975 12.2835C12.1177 10.9293 10.8237 9.89591 9.30845 9.33745ZM3.27329 5.43745C3.27329 4.75758 3.4749 4.09297 3.85262 3.52768C4.23033 2.96238 4.7672 2.52179 5.39532 2.26161C6.02344 2.00144 6.71461 1.93336 7.38142 2.066C8.04823 2.19864 8.66073 2.52603 9.14147 3.00677C9.62222 3.48751 9.94961 4.10002 10.0822 4.76683C10.2149 5.43363 10.1468 6.1248 9.88663 6.75292C9.62645 7.38104 9.18586 7.91791 8.62057 8.29562C8.05527 8.67334 7.39067 8.87495 6.71079 8.87495C5.79943 8.87391 4.92569 8.51142 4.28126 7.86699C3.63682 7.22255 3.27433 6.34881 3.27329 5.43745ZM19.6905 13.1484C19.5517 13.2389 19.3825 13.2706 19.2204 13.2365C19.0582 13.2023 18.9162 13.1052 18.8256 12.9664C18.2588 12.093 17.4824 11.3755 16.5671 10.8791C15.6519 10.3828 14.627 10.1236 13.5858 10.1249C13.42 10.1249 13.2611 10.0591 13.1439 9.94189C13.0266 9.82468 12.9608 9.66571 12.9608 9.49995C12.9608 9.33419 13.0266 9.17522 13.1439 9.05801C13.2611 8.9408 13.42 8.87495 13.5858 8.87495C14.092 8.87447 14.5919 8.76219 15.0497 8.54613C15.5075 8.33007 15.9119 8.01557 16.2341 7.62508C16.5563 7.2346 16.7882 6.77779 16.9133 6.28727C17.0385 5.79676 17.0538 5.28466 16.9581 4.78756C16.8624 4.29047 16.658 3.82064 16.3597 3.41166C16.0614 3.00268 15.6764 2.66464 15.2323 2.42169C14.7882 2.17874 14.2959 2.03688 13.7906 2.00625C13.2853 1.97562 12.7794 2.05696 12.3092 2.24448C12.2326 2.27762 12.15 2.29506 12.0665 2.29577C11.983 2.29647 11.9002 2.28043 11.823 2.24859C11.7457 2.21675 11.6757 2.16975 11.6169 2.11038C11.5582 2.05101 11.512 1.98046 11.4809 1.90291C11.4499 1.82536 11.4347 1.74238 11.4363 1.65887C11.4379 1.57536 11.4563 1.49302 11.4902 1.41671C11.5242 1.3404 11.5731 1.27167 11.634 1.21458C11.695 1.15749 11.7668 1.1132 11.8452 1.08432C12.9213 0.655145 14.1183 0.639701 15.2051 1.04097C16.292 1.44224 17.1917 2.23179 17.7308 3.2573C18.2699 4.28282 18.41 5.47164 18.1243 6.59442C17.8386 7.71719 17.1472 8.69437 16.1834 9.33745C17.6987 9.89591 18.9927 10.9293 19.8725 12.2835C19.963 12.4224 19.9947 12.5915 19.9606 12.7537C19.9264 12.9158 19.8293 13.0578 19.6905 13.1484Z" fill="#E02424"/>
</svg>
