<svg width="20" height="20" viewBox="0 0 22 20" fill="#656565" xmlns="http://www.w3.org/2000/svg">
<path d="M20.5342 15.5087C21.0524 14.4338 21.3067 13.2508 21.2759 12.058C21.2451 10.8651 20.9301 9.6968 20.3571 8.6501C19.7841 7.60341 18.9697 6.70854 17.9814 6.03984C16.9931 5.37113 15.8595 4.94789 14.6748 4.80526C14.2806 3.88873 13.7075 3.06006 12.989 2.36779C12.2706 1.67551 11.4212 1.13353 10.4907 0.773604C9.56018 0.413674 8.56719 0.243022 7.56989 0.271641C6.57259 0.300261 5.59103 0.527576 4.68267 0.940276C3.77432 1.35298 2.95744 1.94277 2.27987 2.67511C1.6023 3.40745 1.07766 4.26762 0.736665 5.20525C0.395673 6.14288 0.245187 7.13912 0.294019 8.13563C0.342851 9.13215 0.590019 10.1089 1.02105 11.0087L0.339487 13.3253C0.263282 13.5839 0.258187 13.8582 0.324737 14.1195C0.391286 14.3808 0.527021 14.6193 0.71766 14.8099C0.9083 15.0005 1.1468 15.1363 1.40806 15.2028C1.66932 15.2694 1.94369 15.2643 2.2023 15.1881L4.51886 14.5065C5.2627 14.8639 6.06019 15.0967 6.87949 15.1956C7.27753 16.1282 7.86056 16.9704 8.59333 17.6713C9.32611 18.3723 10.1934 18.9173 11.1428 19.2735C12.0922 19.6297 13.104 19.7897 14.1169 19.7438C15.1299 19.698 16.1231 19.4471 17.0364 19.0065L19.3529 19.6881C19.6114 19.7642 19.8857 19.7693 20.1468 19.7027C20.408 19.6362 20.6464 19.5006 20.837 19.3101C21.0276 19.1196 21.1634 18.8812 21.23 18.6201C21.2967 18.359 21.2917 18.0848 21.2157 17.8262L20.5342 15.5087ZM4.59011 12.9531C4.51844 12.9532 4.44714 12.9633 4.37824 12.9831L1.77761 13.75L2.54355 11.1475C2.59802 10.9594 2.57683 10.7576 2.48449 10.585C1.80603 9.31612 1.60612 7.84573 1.9212 6.44182C2.23629 5.03792 3.04538 3.79398 4.201 2.93678C5.35661 2.07958 6.78179 1.66619 8.21672 1.77198C9.65166 1.87777 11.0008 2.49569 12.0182 3.5131C13.0356 4.53051 13.6535 5.87965 13.7593 7.31459C13.8651 8.74953 13.4517 10.1747 12.5945 11.3303C11.7373 12.4859 10.4934 13.295 9.08949 13.6101C7.68558 13.9252 6.21519 13.7253 4.94636 13.0468C4.83725 12.9864 4.71481 12.9542 4.59011 12.9531ZM19.0079 15.6465L19.7776 18.25L17.1751 17.484C16.9871 17.4295 16.7852 17.4507 16.6126 17.5431C15.2315 18.2805 13.617 18.4494 12.1132 18.0137C10.6094 17.578 9.33522 16.5721 8.5623 15.2106C9.58922 15.1034 10.5829 14.7852 11.481 14.2758C12.3791 13.7665 13.1623 13.077 13.7814 12.2507C14.4005 11.4244 14.8421 10.4791 15.0786 9.47405C15.3151 8.46901 15.3414 7.42593 15.1557 6.41027C16.0505 6.62117 16.8848 7.03485 17.5943 7.61936C18.3038 8.20388 18.8695 8.9436 19.2477 9.78144C19.626 10.6193 19.8066 11.5328 19.7758 12.4516C19.7449 13.3703 19.5034 14.2697 19.0698 15.0803C18.9765 15.2539 18.9552 15.4573 19.0107 15.6465H19.0079Z" /></svg>