<svg width="22" height="20" viewBox="0 0 22 20" fill="none" xmlns="http://www.w3.org/2000/svg">
<path d="M20.5342 15.5087C21.0524 14.4339 21.3067 13.2509 21.2759 12.058C21.2451 10.8651 20.9301 9.69684 20.3571 8.65015C19.7841 7.60346 18.9697 6.70859 17.9814 6.03988C16.9931 5.37118 15.8595 4.94793 14.6748 4.80531C14.2806 3.88878 13.7075 3.06011 12.989 2.36783C12.2706 1.67555 11.4212 1.13358 10.4907 0.77365C9.56018 0.41372 8.56719 0.243067 7.56989 0.271687C6.57259 0.300306 5.59103 0.527622 4.68267 0.940322C3.77432 1.35302 2.95744 1.94281 2.27987 2.67515C1.6023 3.40749 1.07766 4.26766 0.736665 5.20529C0.395673 6.14292 0.245187 7.13917 0.294019 8.13568C0.342851 9.13219 0.590019 10.1089 1.02105 11.0087L0.339487 13.3253C0.263282 13.5839 0.258187 13.8583 0.324737 14.1196C0.391286 14.3808 0.527021 14.6193 0.71766 14.81C0.9083 15.0006 1.1468 15.1363 1.40806 15.2029C1.66932 15.2694 1.94369 15.2643 2.2023 15.1881L4.51886 14.5066C5.2627 14.8639 6.06019 15.0967 6.87949 15.1956C7.27753 16.1283 7.86056 16.9705 8.59333 17.6714C9.32611 18.3723 10.1934 18.9173 11.1428 19.2736C12.0922 19.6298 13.104 19.7898 14.1169 19.7439C15.1299 19.698 16.1231 19.4472 17.0364 19.0066L19.3529 19.6881C19.6114 19.7642 19.8857 19.7693 20.1468 19.7028C20.408 19.6363 20.6464 19.5006 20.837 19.3101C21.0276 19.1196 21.1634 18.8813 21.23 18.6202C21.2967 18.3591 21.2917 18.0848 21.2157 17.8262L20.5342 15.5087ZM19.0107 15.6466L19.7776 18.25L17.1751 17.4841C16.9871 17.4296 16.7852 17.4508 16.6126 17.5431C15.2315 18.2806 13.617 18.4495 12.1132 18.0137C10.6094 17.578 9.33522 16.5722 8.5623 15.2106C9.58922 15.1034 10.5829 14.7852 11.481 14.2759C12.3791 13.7665 13.1623 13.0771 13.7814 12.2508C14.4005 11.4245 14.8421 10.4791 15.0786 9.4741C15.3151 8.46905 15.3414 7.42598 15.1557 6.41031C16.0505 6.62122 16.8848 7.03489 17.5943 7.61941C18.3038 8.20392 18.8695 8.94365 19.2477 9.78149C19.626 10.6193 19.8066 11.5329 19.7758 12.4516C19.7449 13.3704 19.5034 14.2697 19.0698 15.0803C18.9765 15.254 18.9552 15.4574 19.0107 15.6466Z" fill="#E02424"/>
</svg>
