<svg width="24" height="20" viewBox="0 0 24 18" fill="#656565" xmlns="http://www.w3.org/2000/svg">
						<path d="M22.7276 10.1002C22.6488 10.1593 22.5592 10.2023 22.4638 10.2267C22.3684 10.2511 22.2691 10.2566 22.1716 10.2426C22.0741 10.2287 21.9803 10.1957 21.8955 10.1455C21.8108 10.0953 21.7367 10.029 21.6776 9.95017C21.2256 9.34254 20.6372 8.84953 19.9598 8.51084C19.2824 8.17215 18.535 7.99723 17.7776 8.00017C17.6301 8.00015 17.4859 7.95666 17.363 7.87512C17.2402 7.79358 17.144 7.67761 17.0867 7.54173C17.0478 7.44946 17.0277 7.35032 17.0277 7.25017C17.0277 7.15002 17.0478 7.05088 17.0867 6.95861C17.144 6.82272 17.2402 6.70676 17.363 6.62522C17.4859 6.54368 17.6301 6.50018 17.7776 6.50017C18.1984 6.50013 18.6108 6.38208 18.9679 6.15943C19.325 5.93677 19.6125 5.61844 19.7977 5.24058C19.983 4.86273 20.0585 4.4405 20.0158 4.02185C19.9731 3.60321 19.8139 3.20493 19.5562 2.87225C19.2984 2.53958 18.9526 2.28584 18.5579 2.13987C18.1632 1.9939 17.7355 1.96154 17.3233 2.04646C16.9112 2.13139 16.5311 2.3302 16.2263 2.62031C15.9214 2.91043 15.7041 3.28021 15.5989 3.68767C15.5743 3.78308 15.5311 3.87271 15.4718 3.95144C15.4126 4.03017 15.3384 4.09645 15.2535 4.14651C15.1686 4.19656 15.0747 4.22941 14.9771 4.24318C14.8796 4.25694 14.7802 4.25135 14.6848 4.22673C14.5894 4.20211 14.4998 4.15893 14.421 4.09967C14.3423 4.04041 14.276 3.96622 14.226 3.88134C14.1759 3.79646 14.1431 3.70256 14.1293 3.60498C14.1155 3.50741 14.1211 3.40808 14.1458 3.31267C14.2918 2.74765 14.5677 2.22451 14.9514 1.78487C15.3352 1.34523 15.8163 1.00124 16.3564 0.780246C16.8965 0.559256 17.4808 0.467375 18.0627 0.511915C18.6445 0.556454 19.208 0.736184 19.7082 1.0368C20.2084 1.33742 20.6315 1.75063 20.9439 2.24356C21.2563 2.73648 21.4494 3.29552 21.5077 3.87618C21.566 4.45684 21.488 5.0431 21.2799 5.58831C21.0718 6.13352 20.7393 6.62263 20.3089 7.01673C21.3287 7.45829 22.2152 8.15899 22.8804 9.04923C22.9395 9.12822 22.9825 9.2181 23.0068 9.31371C23.0311 9.40932 23.0363 9.50878 23.0221 9.6064C23.0079 9.70403 22.9746 9.79789 22.924 9.88262C22.8735 9.96735 22.8068 10.0413 22.7276 10.1002ZM17.6764 15.8752C17.7306 15.9605 17.7671 16.056 17.7835 16.1558C17.7999 16.2556 17.796 16.3577 17.7719 16.456C17.7478 16.5542 17.7042 16.6466 17.6435 16.7275C17.5828 16.8084 17.5063 16.8762 17.4188 16.9269C17.3312 16.9775 17.2343 17.0099 17.1339 17.0221C17.0335 17.0343 16.9316 17.026 16.8345 16.9978C16.7373 16.9696 16.6469 16.9221 16.5686 16.8581C16.4903 16.794 16.4258 16.7148 16.3789 16.6252C15.9064 15.8252 15.2335 15.1622 14.4267 14.7016C13.6198 14.241 12.7067 13.9988 11.7776 13.9988C10.8485 13.9988 9.9355 14.241 9.1286 14.7016C8.32171 15.1622 7.64883 15.8252 7.17638 16.6252C7.12949 16.7148 7.06496 16.794 6.98666 16.8581C6.90837 16.9221 6.81793 16.9696 6.72078 16.9978C6.62363 17.026 6.52179 17.0343 6.42138 17.0221C6.32096 17.0099 6.22406 16.9775 6.13648 16.9269C6.04891 16.8762 5.97248 16.8084 5.91179 16.7275C5.8511 16.6466 5.80742 16.5542 5.78335 16.456C5.75928 16.3577 5.75534 16.2556 5.77176 16.1558C5.78818 16.056 5.82461 15.9605 5.87888 15.8752C6.606 14.6258 7.71468 13.6427 9.042 13.0702C8.29512 12.4983 7.74622 11.7068 7.47244 10.8069C7.19866 9.90695 7.21378 8.94385 7.51567 8.05295C7.81756 7.16206 8.39104 6.38817 9.15551 5.84005C9.91997 5.29194 10.837 4.99716 11.7776 4.99716C12.7183 4.99716 13.6353 5.29194 14.3998 5.84005C15.1642 6.38817 15.7377 7.16206 16.0396 8.05295C16.3415 8.94385 16.3566 9.90695 16.0828 10.8069C15.809 11.7068 15.2601 12.4983 14.5133 13.0702C15.8406 13.6427 16.9493 14.6258 17.6764 15.8752ZM11.7776 12.5002C12.371 12.5002 12.951 12.3242 13.4443 11.9946C13.9377 11.6649 14.3222 11.1964 14.5493 10.6482C14.7763 10.1 14.8357 9.49684 14.72 8.9149C14.6042 8.33295 14.3185 7.79841 13.8989 7.37885C13.4794 6.95929 12.9448 6.67357 12.3629 6.55781C11.781 6.44206 11.1778 6.50147 10.6296 6.72853C10.0814 6.95559 9.61286 7.34011 9.28322 7.83346C8.95358 8.32681 8.77763 8.90682 8.77763 9.50017C8.77763 10.2958 9.0937 11.0589 9.65631 11.6215C10.2189 12.1841 10.982 12.5002 11.7776 12.5002ZM6.52763 7.25017C6.52763 7.05126 6.44861 6.86049 6.30796 6.71984C6.16731 6.57919 5.97654 6.50017 5.77763 6.50017C5.35681 6.50013 4.94444 6.38208 4.58735 6.15943C4.23026 5.93677 3.94277 5.61844 3.75753 5.24058C3.5723 4.86273 3.49674 4.4405 3.53944 4.02185C3.58214 3.60321 3.74139 3.20493 3.9991 2.87225C4.25682 2.53958 4.60266 2.28584 4.99735 2.13987C5.39203 1.9939 5.81975 1.96154 6.23191 2.04646C6.64407 2.13139 7.02415 2.3302 7.32898 2.62031C7.63381 2.91043 7.85117 3.28021 7.95638 3.68767C8.00611 3.88036 8.13035 4.04541 8.30177 4.14651C8.47319 4.2476 8.67774 4.27646 8.87044 4.22673C9.06314 4.177 9.22819 4.05276 9.32928 3.88134C9.43037 3.70992 9.45923 3.50536 9.4095 3.31267C9.26348 2.74765 8.98761 2.22451 8.60383 1.78487C8.22005 1.34523 7.73896 1.00124 7.19883 0.780246C6.65871 0.559256 6.07447 0.467375 5.49259 0.511915C4.91071 0.556454 4.34725 0.736184 3.84706 1.0368C3.34686 1.33742 2.92373 1.75063 2.61133 2.24356C2.29894 2.73648 2.10589 3.29552 2.04757 3.87618C1.98924 4.45684 2.06724 5.0431 2.27536 5.58831C2.48347 6.13352 2.81597 6.62263 3.24638 7.01673C2.22758 7.45871 1.34205 8.15938 0.677628 9.04923C0.558156 9.20836 0.506792 9.40843 0.534835 9.60543C0.562877 9.80243 0.66803 9.98023 0.827159 10.0997C0.986289 10.2192 1.18636 10.2705 1.38336 10.2425C1.58036 10.2145 1.75816 10.1093 1.87763 9.95017C2.32968 9.34254 2.91808 8.84953 3.59546 8.51084C4.27285 8.17215 5.02029 7.99723 5.77763 8.00017C5.97654 8.00017 6.16731 7.92115 6.30796 7.7805C6.44861 7.63985 6.52763 7.44908 6.52763 7.25017Z" />
					</svg>