<svg width="24" height="17" viewBox="0 0 24 17" fill="currentColor" xmlns="http://www.w3.org/2000/svg">
<path d="M5.78909 9.85615C5.79164 9.90695 5.78382 9.95774 5.76611 10.0054C5.74841 10.0531 5.72119 10.0967 5.68611 10.1335C5.65103 10.1704 5.60883 10.1997 5.56207 10.2197C5.5153 10.2397 5.46496 10.25 5.41409 10.2499H1.27784C1.10856 10.2502 0.944175 10.1931 0.811411 10.0881C0.678647 9.9831 0.585315 9.83625 0.546592 9.67146C0.522481 9.55867 0.523592 9.44194 0.549847 9.32963C0.576103 9.21731 0.626852 9.11219 0.698467 9.02177C1.36016 8.14425 2.23811 7.45333 3.24659 7.01646C2.80384 6.61278 2.46425 6.10888 2.25629 5.54696C2.04832 4.98505 1.97803 4.38149 2.05129 3.78682C2.12456 3.19216 2.33925 2.6237 2.67738 2.12907C3.01551 1.63444 3.46725 1.22803 3.99474 0.943882C4.52224 0.659734 5.11015 0.50612 5.70922 0.495906C6.3083 0.485692 6.9011 0.619175 7.43798 0.885175C7.97486 1.15118 8.44018 1.54195 8.79498 2.02477C9.14978 2.50758 9.38372 3.06839 9.47722 3.66021C9.48929 3.7398 9.47503 3.82115 9.43662 3.89189C9.3982 3.96262 9.33773 4.01888 9.2644 4.05209C8.22415 4.533 7.34315 5.30144 6.72538 6.26672C6.1076 7.232 5.77883 8.35386 5.77784 9.4999C5.77784 9.6199 5.77784 9.73802 5.78909 9.85615ZM22.8516 9.02084C22.1914 8.14434 21.3155 7.45378 20.3091 7.01646C20.7518 6.61278 21.0914 6.10888 21.2994 5.54696C21.5074 4.98505 21.5777 4.38149 21.5044 3.78682C21.4311 3.19216 21.2164 2.6237 20.8783 2.12907C20.5402 1.63444 20.0884 1.22803 19.5609 0.943882C19.0334 0.659734 18.4455 0.50612 17.8465 0.495906C17.2474 0.485692 16.6546 0.619175 16.1177 0.885175C15.5808 1.15118 15.1155 1.54195 14.7607 2.02477C14.4059 2.50758 14.172 3.06839 14.0785 3.66021C14.0664 3.7398 14.0806 3.82115 14.1191 3.89189C14.1575 3.96262 14.218 4.01888 14.2913 4.05209C15.3315 4.533 16.2125 5.30144 16.8303 6.26672C17.4481 7.232 17.7769 8.35386 17.7778 9.4999C17.7778 9.6199 17.7778 9.73802 17.7666 9.85615C17.764 9.90695 17.7719 9.95774 17.7896 10.0054C17.8073 10.0531 17.8345 10.0967 17.8696 10.1335C17.9046 10.1704 17.9469 10.1997 17.9936 10.2197C18.0404 10.2397 18.0907 10.25 18.1416 10.2499H22.2778C22.4471 10.2502 22.6115 10.1931 22.7443 10.0881C22.877 9.9831 22.9704 9.83625 23.0091 9.67146C23.0333 9.55846 23.0322 9.44149 23.0058 9.32898C22.9794 9.21646 22.9283 9.11122 22.8563 9.02084H22.8516ZM14.5078 13.069C15.2546 12.4971 15.8034 11.7055 16.0771 10.8056C16.3507 9.9057 16.3355 8.94266 16.0336 8.05183C15.7317 7.161 15.1582 6.38718 14.3938 5.83912C13.6293 5.29106 12.7124 4.99632 11.7717 4.99632C10.8311 4.99632 9.91418 5.29106 9.14974 5.83912C8.38531 6.38718 7.81182 7.161 7.50989 8.05183C7.20796 8.94266 7.19276 9.9057 7.46643 10.8056C7.7401 11.7055 8.28889 12.4971 9.03565 13.069C7.71053 13.6431 6.60403 14.6264 5.87815 15.8749C5.81232 15.9889 5.77767 16.1183 5.77767 16.2499C5.77768 16.3816 5.81235 16.511 5.8782 16.625C5.94404 16.739 6.03874 16.8337 6.15278 16.8995C6.26682 16.9653 6.39618 16.9999 6.52784 16.9999H17.0278C17.1595 16.9999 17.2889 16.9653 17.4029 16.8995C17.5169 16.8337 17.6116 16.739 17.6775 16.625C17.7433 16.511 17.778 16.3816 17.778 16.2499C17.778 16.1183 17.7434 15.9889 17.6775 15.8749C16.9501 14.6256 15.8415 13.6422 14.5144 13.069H14.5078Z" />
</svg>
