<svg width="20" height="18" viewBox="0 0 24 17" fill="none" xmlns="http://www.w3.org/2000/svg">
<path d="M6.01126 9.85615C6.0138 9.90695 6.00599 9.95774 5.98828 10.0054C5.97058 10.0531 5.94336 10.0967 5.90828 10.1335C5.8732 10.1704 5.831 10.1997 5.78423 10.2197C5.73747 10.2397 5.68712 10.25 5.63626 10.2499H1.50001C1.33073 10.2502 1.16634 10.1931 1.03358 10.0881C0.900815 9.9831 0.807483 9.83625 0.76876 9.67146C0.744649 9.55867 0.74576 9.44194 0.772015 9.32963C0.79827 9.21731 0.84902 9.11219 0.920635 9.02177C1.58233 8.14425 2.46028 7.45333 3.46876 7.01646C3.026 6.61278 2.68642 6.10888 2.47846 5.54696C2.27049 4.98505 2.2002 4.38149 2.27346 3.78682C2.34672 3.19216 2.56141 2.6237 2.89955 2.12907C3.23768 1.63444 3.68941 1.22803 4.21691 0.943882C4.74441 0.659734 5.33232 0.50612 5.93139 0.495906C6.53047 0.485692 7.12327 0.619175 7.66015 0.885175C8.19703 1.15118 8.66235 1.54195 9.01715 2.02477C9.37195 2.50758 9.60589 3.06839 9.69938 3.66021C9.71146 3.7398 9.6972 3.82115 9.65879 3.89189C9.62037 3.96262 9.5599 4.01888 9.48657 4.05209C8.44631 4.533 7.56532 5.30144 6.94755 6.26672C6.32977 7.232 6.00099 8.35386 6.00001 9.4999C6.00001 9.6199 6.00001 9.73802 6.01126 9.85615ZM23.0738 9.02084C22.4136 8.14434 21.5376 7.45378 20.5313 7.01646C20.974 6.61278 21.3136 6.10888 21.5216 5.54696C21.7295 4.98505 21.7998 4.38149 21.7266 3.78682C21.6533 3.19216 21.4386 2.6237 21.1005 2.12907C20.7623 1.63444 20.3106 1.22803 19.7831 0.943882C19.2556 0.659734 18.6677 0.50612 18.0686 0.495906C17.4696 0.485692 16.8768 0.619175 16.3399 0.885175C15.803 1.15118 15.3377 1.54195 14.9829 2.02477C14.6281 2.50758 14.3941 3.06839 14.3006 3.66021C14.2886 3.7398 14.3028 3.82115 14.3412 3.89189C14.3796 3.96262 14.4401 4.01888 14.5134 4.05209C15.5537 4.533 16.4347 5.30144 17.0525 6.26672C17.6702 7.232 17.999 8.35386 18 9.4999C18 9.6199 18 9.73802 17.9888 9.85615C17.9862 9.90695 17.994 9.95774 18.0117 10.0054C18.0294 10.0531 18.0567 10.0967 18.0917 10.1335C18.1268 10.1704 18.169 10.1997 18.2158 10.2197C18.2626 10.2397 18.3129 10.25 18.3638 10.2499H22.5C22.6693 10.2502 22.8337 10.1931 22.9664 10.0881C23.0992 9.9831 23.1925 9.83625 23.2313 9.67146C23.2555 9.55846 23.2544 9.44149 23.228 9.32898C23.2015 9.21646 23.1505 9.11122 23.0784 9.02084H23.0738ZM14.73 13.069C15.4768 12.4971 16.0256 11.7055 16.2992 10.8056C16.5729 9.9057 16.5577 8.94266 16.2558 8.05183C15.9538 7.161 15.3804 6.38718 14.6159 5.83912C13.8515 5.29106 12.9345 4.99632 11.9939 4.99632C11.0533 4.99632 10.1364 5.29106 9.37191 5.83912C8.60747 6.38718 8.03399 7.161 7.73206 8.05183C7.43012 8.94266 7.41493 9.9057 7.6886 10.8056C7.96227 11.7055 8.51106 12.4971 9.25782 13.069C7.9327 13.6431 6.8262 14.6264 6.10032 15.8749C6.03449 15.9889 5.99983 16.1183 5.99984 16.2499C5.99985 16.3816 6.03452 16.511 6.10036 16.625C6.16621 16.739 6.26091 16.8337 6.37495 16.8995C6.48899 16.9653 6.61834 16.9999 6.75001 16.9999H17.25C17.3817 16.9999 17.511 16.9653 17.6251 16.8995C17.7391 16.8337 17.8338 16.739 17.8997 16.625C17.9655 16.511 18.0002 16.3816 18.0002 16.2499C18.0002 16.1183 17.9655 15.9889 17.8997 15.8749C17.1723 14.6256 16.0637 13.6422 14.7366 13.069H14.73Z" fill="#E02424"/>
</svg>