<svg width="20" height="20" viewBox="0 0 20 18" fill="none" xmlns="http://www.w3.org/2000/svg">
<path d="M18.0278 0.75H1.52783C1.13001 0.75 0.748476 0.908035 0.467172 1.18934C0.185867 1.47064 0.027832 1.85218 0.027832 2.25V15.75C0.027832 16.1478 0.185867 16.5294 0.467172 16.8107C0.748476 17.092 1.13001 17.25 1.52783 17.25H18.0278C18.4257 17.25 18.8072 17.092 19.0885 16.8107C19.3698 16.5294 19.5278 16.1478 19.5278 15.75V2.25C19.5278 1.85218 19.3698 1.47064 19.0885 1.18934C18.8072 0.908035 18.4257 0.75 18.0278 0.75ZM16.5278 15H3.02783C2.82892 15 2.63815 14.921 2.4975 14.7803C2.35685 14.6397 2.27783 14.4489 2.27783 14.25V3.75C2.27783 3.55109 2.35685 3.36032 2.4975 3.21967C2.63815 3.07902 2.82892 3 3.02783 3C3.22674 3 3.41751 3.07902 3.55816 3.21967C3.69881 3.36032 3.77783 3.55109 3.77783 3.75V10.9397L6.99721 7.71937C7.06686 7.64964 7.14958 7.59432 7.24063 7.55658C7.33168 7.51884 7.42927 7.49941 7.52783 7.49941C7.62639 7.49941 7.72399 7.51884 7.81504 7.55658C7.90609 7.59432 7.9888 7.64964 8.05846 7.71937L9.77783 9.43969L13.9675 5.25H11.2778C11.0789 5.25 10.8882 5.17098 10.7475 5.03033C10.6068 4.88968 10.5278 4.69891 10.5278 4.5C10.5278 4.30109 10.6068 4.11032 10.7475 3.96967C10.8882 3.82902 11.0789 3.75 11.2778 3.75H15.7778C15.9767 3.75 16.1675 3.82902 16.3082 3.96967C16.4488 4.11032 16.5278 4.30109 16.5278 4.5V9C16.5278 9.19891 16.4488 9.38968 16.3082 9.53033C16.1675 9.67098 15.9767 9.75 15.7778 9.75C15.5789 9.75 15.3882 9.67098 15.2475 9.53033C15.1068 9.38968 15.0278 9.19891 15.0278 9V6.31031L10.3085 11.0306C10.2388 11.1004 10.1561 11.1557 10.065 11.1934C9.97399 11.2312 9.87639 11.2506 9.77783 11.2506C9.67927 11.2506 9.58168 11.2312 9.49063 11.1934C9.39958 11.1557 9.31686 11.1004 9.24721 11.0306L7.52783 9.31031L3.77783 13.0603V13.5H16.5278C16.7267 13.5 16.9175 13.579 17.0582 13.7197C17.1988 13.8603 17.2778 14.0511 17.2778 14.25C17.2778 14.4489 17.1988 14.6397 17.0582 14.7803C16.9175 14.921 16.7267 15 16.5278 15Z" fill="#E02424" /></svg>