<svg width="18" height="18" viewBox="0 0 20 18" fill="none" xmlns="http://www.w3.org/2000/svg">
<path d="M19.5278 16.5C19.5278 16.6989 19.4488 16.8897 19.3082 17.0303C19.1675 17.171 18.9767 17.25 18.7778 17.25H0.777832C0.57892 17.25 0.388154 17.171 0.247502 17.0303C0.10685 16.8897 0.027832 16.6989 0.027832 16.5V1.5C0.027832 1.30109 0.10685 1.11032 0.247502 0.96967C0.388154 0.829018 0.57892 0.75 0.777832 0.75C0.976744 0.75 1.16751 0.829018 1.30816 0.96967C1.44881 1.11032 1.52783 1.30109 1.52783 1.5V11.6897L6.24721 6.96937C6.31686 6.89964 6.39958 6.84432 6.49063 6.80658C6.58168 6.76884 6.67927 6.74941 6.77783 6.74941C6.87639 6.74941 6.97399 6.76884 7.06504 6.80658C7.15609 6.84432 7.2388 6.89964 7.30846 6.96937L9.77783 9.43969L14.7175 4.5H12.7778C12.5789 4.5 12.3882 4.42098 12.2475 4.28033C12.1068 4.13968 12.0278 3.94891 12.0278 3.75C12.0278 3.55109 12.1068 3.36032 12.2475 3.21967C12.3882 3.07902 12.5789 3 12.7778 3H16.5278C16.7267 3 16.9175 3.07902 17.0582 3.21967C17.1988 3.36032 17.2778 3.55109 17.2778 3.75V7.5C17.2778 7.69891 17.1988 7.88968 17.0582 8.03033C16.9175 8.17098 16.7267 8.25 16.5278 8.25C16.3289 8.25 16.1382 8.17098 15.9975 8.03033C15.8568 7.88968 15.7778 7.69891 15.7778 7.5V5.56031L10.3085 11.0306C10.2388 11.1004 10.1561 11.1557 10.065 11.1934C9.97399 11.2312 9.87639 11.2506 9.77783 11.2506C9.67927 11.2506 9.58168 11.2312 9.49063 11.1934C9.39958 11.1557 9.31686 11.1004 9.24721 11.0306L6.77783 8.56031L1.52783 13.8103V15.75H18.7778C18.9767 15.75 19.1675 15.829 19.3082 15.9697C19.4488 16.1103 19.5278 16.3011 19.5278 16.5Z" fill="#656565"/>
</svg>
