<!-- <svg width="24" height="24" viewBox="0 0 26 26" fill="none" xmlns="http://www.w3.org/2000/svg">
<path d="M13 0C10.4288 0 7.91543 0.762437 5.77759 2.1909C3.63975 3.61935 1.97351 5.64968 0.989572 8.02512C0.0056327 10.4006 -0.251811 13.0144 0.249797 15.5362C0.751405 18.0579 1.98953 20.3743 3.80762 22.1924C5.6257 24.0105 7.94208 25.2486 10.4638 25.7502C12.9856 26.2518 15.5995 25.9944 17.9749 25.0104C20.3503 24.0265 22.3807 22.3603 23.8091 20.2224C25.2376 18.0846 26 15.5712 26 13C25.9964 9.5533 24.6256 6.24882 22.1884 3.81163C19.7512 1.37445 16.4467 0.00363977 13 0ZM13 24C10.8244 24 8.69767 23.3549 6.88873 22.1462C5.07979 20.9375 3.66989 19.2195 2.83733 17.2095C2.00477 15.1995 1.78693 12.9878 2.21137 10.854C2.63581 8.72022 3.68345 6.7602 5.22183 5.22183C6.76021 3.68345 8.72022 2.6358 10.854 2.21136C12.9878 1.78692 15.1995 2.00476 17.2095 2.83733C19.2195 3.66989 20.9375 5.07979 22.1462 6.88873C23.3549 8.69767 24 10.8244 24 13C23.9967 15.9164 22.8367 18.7123 20.7745 20.7745C18.7123 22.8367 15.9164 23.9967 13 24ZM19.03 12.1525L11.03 7.1525C10.8787 7.05791 10.7048 7.00555 10.5264 7.00084C10.348 6.99614 10.1716 7.03926 10.0155 7.12573C9.85934 7.21221 9.72922 7.33888 9.63858 7.49262C9.54794 7.64635 9.50009 7.82154 9.50001 8V18C9.50009 18.1785 9.54794 18.3537 9.63858 18.5074C9.72922 18.6611 9.85934 18.7878 10.0155 18.8743C10.1716 18.9607 10.348 19.0039 10.5264 18.9992C10.7048 18.9944 10.8787 18.9421 11.03 18.8475L19.03 13.8475C19.1736 13.7576 19.292 13.6326 19.3741 13.4844C19.4562 13.3361 19.4992 13.1694 19.4992 13C19.4992 12.8306 19.4562 12.6639 19.3741 12.5156C19.292 12.3674 19.1736 12.2424 19.03 12.1525ZM11.5 16.1963V9.80375L16.6138 13L11.5 16.1963Z" fill="black"/>
</svg> -->

<!-- <svg width="24" height="24" viewBox="0 0 26 26" fill="none" xmlns="http://www.w3.org/2000/svg">
 
  <path d="M13 0C10.4288 0 7.91543 0.762437 5.77759 2.1909C3.63975 3.61935 1.97351 5.64968 0.989572 8.02512C0.0056327 10.4006 -0.251811 13.0144 0.249797 15.5362C0.751405 18.0579 1.98953 20.3743 3.80762 22.1924C5.6257 24.0105 7.94208 25.2486 10.4638 25.7502C12.9856 26.2518 15.5995 25.9944 17.9749 25.0104C20.3503 24.0265 22.3807 22.3603 23.8091 20.2224C25.2376 18.0846 26 15.5712 26 13C25.9964 9.5533 24.6256 6.24882 22.1884 3.81163C19.7512 1.37445 16.4467 0.00363977 13 0Z" fill="none" stroke="black" stroke-width="1"/>
  
  
  <path d="M11.5 16.1963V9.80375L16.6138 13L11.5 16.1963Z" fill="red" stroke="red" stroke-width="1"/>
</svg> -->

<svg width="24" height="24" viewBox="0 0 26 26" fill="none" xmlns="http://www.w3.org/2000/svg">
  <!-- Outer circle (perfect round video player frame) -->
  <circle cx="13" cy="13" r="11" stroke="black" stroke-width="2" fill="none"/>
  
  <!-- Inner triangle with red stroke and red fill -->
  <path d="M11.5 16.1963V9.80375L16.6138 13L11.5 16.1963Z" fill="red" stroke="red" stroke-width="1"/>
</svg>
