<svg width="16" height="15" viewBox="0 0 16 15" fill="none" xmlns="http://www.w3.org/2000/svg">
<path d="M12.1714 2.5H0.921387C0.755626 2.5 0.596655 2.56585 0.479445 2.68306C0.362235 2.80027 0.296387 2.95924 0.296387 3.125V14.375C0.296387 14.5408 0.362235 14.6997 0.479445 14.8169C0.596655 14.9342 0.755626 15 0.921387 15H12.1714C12.3371 15 12.4961 14.9342 12.6133 14.8169C12.7305 14.6997 12.7964 14.5408 12.7964 14.375V3.125C12.7964 2.95924 12.7305 2.80027 12.6133 2.68306C12.4961 2.56585 12.3371 2.5 12.1714 2.5ZM11.5464 13.75H1.54639V3.75H11.5464V13.75ZM15.2964 0.625V11.875C15.2964 12.0408 15.2305 12.1997 15.1133 12.3169C14.9961 12.4342 14.8371 12.5 14.6714 12.5C14.5056 12.5 14.3467 12.4342 14.2294 12.3169C14.1122 12.1997 14.0464 12.0408 14.0464 11.875V1.25H3.42139C3.25563 1.25 3.09666 1.18415 2.97944 1.06694C2.86223 0.949731 2.79639 0.79076 2.79639 0.625C2.79639 0.45924 2.86223 0.300269 2.97944 0.183058C3.09666 0.0658481 3.25563 0 3.42139 0H14.6714C14.8371 0 14.9961 0.0658481 15.1133 0.183058C15.2305 0.300269 15.2964 0.45924 15.2964 0.625Z" fill="#656565"/>
</svg>
