<svg width="17" height="17" viewBox="0 0 17 17" fill="none" xmlns="http://www.w3.org/2000/svg">
<path d="M16.2042 4.73209L12.7128 1.24146C12.5967 1.12536 12.4589 1.03326 12.3072 0.970422C12.1556 0.907586 11.993 0.875244 11.8288 0.875244C11.6646 0.875244 11.5021 0.907586 11.3504 0.970422C11.1987 1.03326 11.0609 1.12536 10.9448 1.24146L1.31124 10.8751C1.19466 10.9907 1.10223 11.1284 1.03933 11.2801C0.976428 11.4318 0.944306 11.5944 0.944831 11.7586V15.2501C0.944831 15.5816 1.07653 15.8995 1.31095 16.1339C1.54537 16.3684 1.86331 16.5001 2.19483 16.5001H15.3198C15.4856 16.5001 15.6446 16.4342 15.7618 16.317C15.879 16.1998 15.9448 16.0408 15.9448 15.8751C15.9448 15.7093 15.879 15.5503 15.7618 15.4331C15.6446 15.3159 15.4856 15.2501 15.3198 15.2501H7.45421L16.2042 6.50006C16.3203 6.38398 16.4124 6.24617 16.4752 6.09449C16.5381 5.94282 16.5704 5.78025 16.5704 5.61607C16.5704 5.45189 16.5381 5.28933 16.4752 5.13765C16.4124 4.98597 16.3203 4.84816 16.2042 4.73209ZM5.68624 15.2501H2.19483V11.7586L9.06983 4.88365L12.5612 8.37506L5.68624 15.2501ZM13.4448 7.49146L9.95421 4.00006L11.8292 2.12506L15.3198 5.61646L13.4448 7.49146Z" fill="#B8B8B8" />
</svg>
