<svg width="14" height="14" viewBox="0 0 26 24" fill="none" xmlns="http://www.w3.org/2000/svg">
<path d="M25.825 1.19128C25.6711 0.835671 25.416 0.533152 25.0915 0.321351C24.7671 0.109549 24.3875 -0.00218948 24 3.25058e-05H2C1.61291 0.000795205 1.23436 0.11387 0.910279 0.325541C0.586193 0.537211 0.330496 0.83838 0.174206 1.19251C0.0179169 1.54664 -0.032248 1.93852 0.0297971 2.3206C0.0918421 2.70268 0.263431 3.05855 0.523747 3.34503L0.533747 3.35628L9 12.3963V22C8.99991 22.362 9.09807 22.7172 9.28399 23.0278C9.46992 23.3384 9.73664 23.5927 10.0557 23.7636C10.3748 23.9345 10.7343 24.0155 11.0959 23.9982C11.4574 23.9808 11.8075 23.8657 12.1087 23.665L16.1087 20.9975C16.383 20.8149 16.6078 20.5673 16.7633 20.2769C16.9188 19.9864 17.0001 19.662 17 19.3325V12.3963L25.4675 3.35628L25.4775 3.34503C25.7406 3.05986 25.9138 2.70352 25.9756 2.32049C26.0374 1.93747 25.985 1.54472 25.825 1.19128ZM15.2725 11.3225C15.0995 11.5059 15.0022 11.7479 15 12V19.3325L11 22V12C11.0001 11.7461 10.9035 11.5017 10.73 11.3163L2 2.00003H24L15.2725 11.3225Z" fill="#191919"/>
</svg>
