<svg width="15" height="20" viewBox="0 0 15 20" fill="none" xmlns="http://www.w3.org/2000/svg">
<path d="M14.2292 9.23208C14.2056 9.1319 14.1575 9.03913 14.0894 8.96199C14.0212 8.88484 13.9351 8.82573 13.8386 8.78989L9.33782 7.10161L10.4831 1.3727C10.5091 1.23959 10.491 1.10166 10.4317 0.979716C10.3723 0.857774 10.2749 0.758439 10.1542 0.6967C10.0335 0.634962 9.89591 0.61417 9.76232 0.637463C9.62872 0.660755 9.50632 0.726868 9.4136 0.825824L0.6636 10.2008C0.592534 10.2757 0.541123 10.367 0.513962 10.4666C0.486801 10.5662 0.484735 10.671 0.507949 10.7716C0.531163 10.8722 0.578933 10.9655 0.646993 11.0431C0.715052 11.1207 0.801281 11.1803 0.897975 11.2165L5.40032 12.9047L4.25813 18.6274C4.2322 18.7605 4.25026 18.8984 4.30959 19.0204C4.36893 19.1423 4.46632 19.2416 4.58706 19.3034C4.7078 19.3651 4.84535 19.3859 4.97894 19.3626C5.11254 19.3393 5.23494 19.2732 5.32766 19.1743L14.0777 9.79926C14.1474 9.72436 14.1978 9.63347 14.2242 9.53457C14.2506 9.43567 14.2523 9.3318 14.2292 9.23208ZM5.91516 16.7188L6.73313 12.6266C6.76241 12.4815 6.73921 12.3307 6.66767 12.201C6.59613 12.0714 6.4809 11.9714 6.34251 11.9188L2.21438 10.368L8.82532 3.2852L8.00813 7.37739C7.97886 7.52252 8.00205 7.67333 8.07359 7.80296C8.14513 7.93258 8.26036 8.0326 8.39876 8.0852L12.5238 9.63208L5.91516 16.7188Z" fill="#E02424"/>
</svg>
