<svg width="18" height="20" viewBox="0 0 18 20" fill="none" xmlns="http://www.w3.org/2000/svg">
									<path d="M16.8085 4.21938L13.0585 0.469375C12.9888 0.399749 12.906 0.344539 12.815 0.306898C12.7239 0.269257 12.6264 0.249923 12.5278 0.25H5.02783C4.63001 0.25 4.24848 0.408035 3.96717 0.68934C3.68587 0.970645 3.52783 1.35218 3.52783 1.75V3.25H2.02783C1.63001 3.25 1.24848 3.40804 0.967172 3.68934C0.685867 3.97064 0.527832 4.35218 0.527832 4.75V18.25C0.527832 18.6478 0.685867 19.0294 0.967172 19.3107C1.24848 19.592 1.63001 19.75 2.02783 19.75H12.5278C12.9257 19.75 13.3072 19.592 13.5885 19.3107C13.8698 19.0294 14.0278 18.6478 14.0278 18.25V16.75H15.5278C15.9257 16.75 16.3072 16.592 16.5885 16.3107C16.8698 16.0294 17.0278 15.6478 17.0278 15.25V4.75C17.0279 4.65148 17.0086 4.55391 16.9709 4.46286C16.9333 4.37182 16.8781 4.28908 16.8085 4.21938ZM12.5278 18.25H2.02783V4.75H9.21752L12.5278 8.06031V15.985C12.5278 15.9906 12.5278 15.9953 12.5278 16C12.5278 16.0047 12.5278 16.0094 12.5278 16.015V18.25ZM15.5278 15.25H14.0278V7.75C14.0279 7.65148 14.0086 7.55391 13.9709 7.46286C13.9333 7.37182 13.8781 7.28908 13.8085 7.21937L10.0585 3.46938C9.98875 3.39975 9.90602 3.34454 9.81497 3.3069C9.72392 3.26926 9.62635 3.24992 9.52783 3.25H5.02783V1.75H12.2175L15.5278 5.06031V15.25ZM10.2778 12.25C10.2778 12.4489 10.1988 12.6397 10.0582 12.7803C9.91751 12.921 9.72674 13 9.52783 13H5.02783C4.82892 13 4.63815 12.921 4.4975 12.7803C4.35685 12.6397 4.27783 12.4489 4.27783 12.25C4.27783 12.0511 4.35685 11.8603 4.4975 11.7197C4.63815 11.579 4.82892 11.5 5.02783 11.5H9.52783C9.72674 11.5 9.91751 11.579 10.0582 11.7197C10.1988 11.8603 10.2778 12.0511 10.2778 12.25ZM10.2778 15.25C10.2778 15.4489 10.1988 15.6397 10.0582 15.7803C9.91751 15.921 9.72674 16 9.52783 16H5.02783C4.82892 16 4.63815 15.921 4.4975 15.7803C4.35685 15.6397 4.27783 15.4489 4.27783 15.25C4.27783 15.0511 4.35685 14.8603 4.4975 14.7197C4.63815 14.579 4.82892 14.5 5.02783 14.5H9.52783C9.72674 14.5 9.91751 14.579 10.0582 14.7197C10.1988 14.8603 10.2778 15.0511 10.2778 15.25Z" fill="#656565"/>
								</svg>