<svg width="22" height="20" viewBox="0 0 22 20" fill="none" xmlns="http://www.w3.org/2000/svg">
<path d="M21.0849 8.05092C21.064 7.9453 21.0206 7.84543 20.9577 7.75807C20.8948 7.67072 20.8138 7.59793 20.7202 7.54467L17.9236 5.95092L17.9124 2.79904C17.912 2.69049 17.8881 2.58331 17.8423 2.4849C17.7965 2.38649 17.7299 2.29919 17.6471 2.22904C16.6326 1.37095 15.4644 0.713356 14.2046 0.291232C14.1054 0.257651 14.0002 0.245223 13.8959 0.25475C13.7916 0.264276 13.6904 0.295546 13.5989 0.346545L10.778 1.92342L7.95426 0.343732C7.86272 0.292446 7.76143 0.260941 7.65695 0.251251C7.55246 0.241562 7.44711 0.253905 7.3477 0.287482C6.08861 0.712317 4.92167 1.37246 3.90895 2.23279C3.82623 2.30284 3.75968 2.38999 3.71388 2.48823C3.66807 2.58647 3.64411 2.69347 3.64364 2.80186L3.62957 5.95654L0.83301 7.55029C0.739449 7.60356 0.658452 7.67634 0.595524 7.7637C0.532597 7.85105 0.489213 7.95093 0.468323 8.05654C0.212382 9.34268 0.212382 10.6667 0.468323 11.9528C0.489213 12.0584 0.532597 12.1583 0.595524 12.2456C0.658452 12.333 0.739449 12.4058 0.83301 12.459L3.62957 14.0528L3.64082 17.2056C3.64116 17.3142 3.66506 17.4213 3.71087 17.5197C3.75667 17.6182 3.8233 17.7055 3.90614 17.7756C4.92058 18.6337 6.08878 19.2913 7.34863 19.7134C7.44785 19.747 7.553 19.7594 7.65731 19.7499C7.76161 19.7404 7.86277 19.7091 7.95426 19.6581L10.778 18.0765L13.6018 19.6562C13.7135 19.7185 13.8395 19.7508 13.9674 19.75C14.0493 19.75 14.1307 19.7367 14.2083 19.7106C15.4671 19.286 16.634 18.6265 17.6471 17.7672C17.7298 17.6971 17.7963 17.61 17.8421 17.5117C17.8879 17.4135 17.9119 17.3065 17.9124 17.1981L17.9264 14.0434L20.723 12.4497C20.8166 12.3964 20.8976 12.3236 20.9605 12.2363C21.0234 12.1489 21.0668 12.049 21.0877 11.9434C21.3422 10.6583 21.3413 9.33566 21.0849 8.05092ZM10.778 13.75C10.0363 13.75 9.31131 13.53 8.69462 13.118C8.07794 12.7059 7.59729 12.1203 7.31346 11.435C7.02963 10.7498 6.95537 9.99582 7.10007 9.26839C7.24476 8.54096 7.60191 7.87278 8.12636 7.34833C8.65081 6.82388 9.31899 6.46673 10.0464 6.32204C10.7739 6.17734 11.5279 6.2516 12.2131 6.53543C12.8983 6.81926 13.484 7.29991 13.896 7.91659C14.3081 8.53328 14.528 9.2583 14.528 9.99998C14.528 10.9945 14.1329 11.9484 13.4297 12.6516C12.7264 13.3549 11.7726 13.75 10.778 13.75Z" fill="#E02424"/>
</svg>
