<svg width="12" height="12" viewBox="0 0 12 12" fill="none" xmlns="http://www.w3.org/2000/svg">
<path d="M4.05566 0.5H1.05566C0.790448 0.5 0.536094 0.605357 0.348557 0.792893C0.161021 0.98043 0.0556641 1.23478 0.0556641 1.5V4.5C0.0556641 4.76522 0.161021 5.01957 0.348557 5.20711C0.536094 5.39464 0.790448 5.5 1.05566 5.5H4.05566C4.32088 5.5 4.57523 5.39464 4.76277 5.20711C4.95031 5.01957 5.05566 4.76522 5.05566 4.5V1.5C5.05566 1.23478 4.95031 0.98043 4.76277 0.792893C4.57523 0.605357 4.32088 0.5 4.05566 0.5ZM4.05566 4.5H1.05566V1.5H4.05566V4.5ZM10.0557 0.5H7.05566C6.79045 0.5 6.53609 0.605357 6.34856 0.792893C6.16102 0.98043 6.05566 1.23478 6.05566 1.5V4.5C6.05566 4.76522 6.16102 5.01957 6.34856 5.20711C6.53609 5.39464 6.79045 5.5 7.05566 5.5H10.0557C10.3209 5.5 10.5752 5.39464 10.7628 5.20711C10.9503 5.01957 11.0557 4.76522 11.0557 4.5V1.5C11.0557 1.23478 10.9503 0.98043 10.7628 0.792893C10.5752 0.605357 10.3209 0.5 10.0557 0.5ZM10.0557 4.5H7.05566V1.5H10.0557V4.5ZM4.05566 6.5H1.05566C0.790448 6.5 0.536094 6.60536 0.348557 6.79289C0.161021 6.98043 0.0556641 7.23478 0.0556641 7.5V10.5C0.0556641 10.7652 0.161021 11.0196 0.348557 11.2071C0.536094 11.3946 0.790448 11.5 1.05566 11.5H4.05566C4.32088 11.5 4.57523 11.3946 4.76277 11.2071C4.95031 11.0196 5.05566 10.7652 5.05566 10.5V7.5C5.05566 7.23478 4.95031 6.98043 4.76277 6.79289C4.57523 6.60536 4.32088 6.5 4.05566 6.5ZM4.05566 10.5H1.05566V7.5H4.05566V10.5ZM10.0557 6.5H7.05566C6.79045 6.5 6.53609 6.60536 6.34856 6.79289C6.16102 6.98043 6.05566 7.23478 6.05566 7.5V10.5C6.05566 10.7652 6.16102 11.0196 6.34856 11.2071C6.53609 11.3946 6.79045 11.5 7.05566 11.5H10.0557C10.3209 11.5 10.5752 11.3946 10.7628 11.2071C10.9503 11.0196 11.0557 10.7652 11.0557 10.5V7.5C11.0557 7.23478 10.9503 6.98043 10.7628 6.79289C10.5752 6.60536 10.3209 6.5 10.0557 6.5ZM10.0557 10.5H7.05566V7.5H10.0557V10.5Z" fill="#E02424"/>
</svg>
