<svg width="18" height="20" viewBox="0 0 20 19" fill="none" xmlns="http://www.w3.org/2000/svg">
<path d="M19.1941 6.37562L10.1941 0.375624C10.0708 0.293395 9.92599 0.249512 9.77783 0.249512C9.62967 0.249512 9.48483 0.293395 9.36158 0.375624L0.361582 6.37562C0.258842 6.44417 0.174621 6.53703 0.116397 6.64595C0.0581744 6.75488 0.027752 6.87649 0.0278322 7V16.75C0.0278322 17.1478 0.185867 17.5294 0.467172 17.8107C0.748477 18.092 1.13001 18.25 1.52783 18.25H18.0278C18.4257 18.25 18.8072 18.092 19.0885 17.8107C19.3698 17.5294 19.5278 17.1478 19.5278 16.75V7C19.5279 6.87649 19.4975 6.75488 19.4393 6.64595C19.381 6.53703 19.2968 6.44417 19.1941 6.37562ZM6.84533 12.25L1.52783 16V8.45594L6.84533 12.25ZM8.38002 13H11.1756L16.4847 16.75H3.07096L8.38002 13ZM12.7103 12.25L18.0278 8.45594V16L12.7103 12.25ZM9.77783 1.90094L17.4569 7.02062L11.1756 11.5H8.3819L2.10064 7.02062L9.77783 1.90094Z" fill="#656565"/>
</svg>
