<svg width="19" height="9" viewBox="0 0 19 9" fill="none" xmlns="http://www.w3.org/2000/svg">
<path d="M11.244 1.69613L4.24404 8.57113C4.12714 8.68612 3.96973 8.75056 3.80576 8.75056C3.64178 8.75056 3.48438 8.68612 3.36748 8.57113L0.367476 5.62504C0.308946 5.56748 0.262325 5.49896 0.230275 5.42339C0.198226 5.34782 0.181375 5.26667 0.180686 5.18458C0.179997 5.1025 0.195482 5.02108 0.226258 4.94498C0.257034 4.86888 0.302498 4.79958 0.360054 4.74105C0.41761 4.68252 0.486131 4.6359 0.561704 4.60385C0.637278 4.5718 0.718424 4.55495 0.800509 4.55426C0.882595 4.55357 0.964012 4.56906 1.04011 4.59984C1.11621 4.63061 1.18551 4.67608 1.24404 4.73363L3.80576 7.24926L10.3683 0.803944C10.4866 0.687705 10.6462 0.623225 10.8121 0.62469C10.8942 0.625416 10.9754 0.642309 11.051 0.674406C11.1265 0.706503 11.1951 0.753175 11.2526 0.811757C11.3102 0.870339 11.3556 0.939683 11.3864 1.01583C11.4172 1.09198 11.4326 1.17344 11.4319 1.25556C11.4312 1.33768 11.4143 1.41886 11.3822 1.49445C11.3501 1.57004 11.3034 1.63858 11.2448 1.69613H11.244ZM18.7519 0.811757C18.6943 0.753131 18.6258 0.70642 18.5502 0.674295C18.4746 0.64217 18.3934 0.625262 18.3113 0.624536C18.2291 0.623811 18.1477 0.639282 18.0715 0.670066C17.9954 0.700851 17.926 0.746344 17.8675 0.803944L11.305 7.24926L9.83388 5.80394C9.71557 5.68781 9.55597 5.62343 9.39019 5.62497C9.22441 5.6265 9.06603 5.69384 8.9499 5.81215C8.83376 5.93046 8.76938 6.09006 8.77092 6.25584C8.77246 6.42162 8.83979 6.58 8.9581 6.69613L10.8667 8.57113C10.9836 8.68612 11.141 8.75056 11.305 8.75056C11.469 8.75056 11.6264 8.68612 11.7433 8.57113L18.7433 1.69613C18.8019 1.63865 18.8487 1.57017 18.8809 1.4946C18.9131 1.41903 18.9301 1.33786 18.9309 1.25573C18.9317 1.17359 18.9163 1.0921 18.8856 1.01592C18.8548 0.939743 18.8094 0.870365 18.7519 0.811757Z" fill="#667085"/>
</svg>
