<svg width="20" height="9" viewBox="0 0 20 9" fill="none" xmlns="http://www.w3.org/2000/svg">
<path d="M11.5404 1.69613L4.54043 8.57113C4.42353 8.68612 4.26612 8.75056 4.10214 8.75056C3.93817 8.75056 3.78076 8.68612 3.66386 8.57113L0.663863 5.62504C0.605332 5.56748 0.558711 5.49896 0.526662 5.42339C0.494612 5.34782 0.477762 5.26667 0.477073 5.18458C0.476384 5.1025 0.491869 5.02108 0.522645 4.94498C0.553421 4.86888 0.598885 4.79958 0.656441 4.74105C0.713997 4.68252 0.782518 4.6359 0.858091 4.60385C0.933665 4.5718 1.01481 4.55495 1.0969 4.55426C1.17898 4.55357 1.2604 4.56906 1.3365 4.59984C1.4126 4.63061 1.48189 4.67608 1.54043 4.73363L4.10214 7.24926L10.6646 0.803944C10.783 0.687705 10.9426 0.623225 11.1084 0.62469C11.1906 0.625416 11.2717 0.642309 11.3473 0.674406C11.4229 0.706503 11.4915 0.753175 11.549 0.811757C11.6066 0.870339 11.652 0.939683 11.6828 1.01583C11.7135 1.09198 11.729 1.17344 11.7283 1.25556C11.7275 1.33768 11.7107 1.41886 11.6786 1.49445C11.6465 1.57004 11.5998 1.63858 11.5412 1.69613H11.5404ZM19.0482 0.811757C18.9907 0.753131 18.9222 0.70642 18.8466 0.674295C18.771 0.64217 18.6898 0.625262 18.6077 0.624536C18.5255 0.623811 18.4441 0.639282 18.3679 0.670066C18.2918 0.700851 18.2224 0.746344 18.1639 0.803944L11.6014 7.24926L10.1303 5.80394C10.012 5.68781 9.85236 5.62343 9.68658 5.62497C9.5208 5.6265 9.36242 5.69384 9.24629 5.81215C9.13015 5.93046 9.06577 6.09006 9.06731 6.25584C9.06885 6.42162 9.13618 6.58 9.25449 6.69613L11.1631 8.57113C11.28 8.68612 11.4374 8.75056 11.6014 8.75056C11.7653 8.75056 11.9227 8.68612 12.0396 8.57113L19.0396 1.69613C19.0983 1.63865 19.1451 1.57017 19.1773 1.4946C19.2095 1.41903 19.2265 1.33786 19.2273 1.25573C19.2281 1.17359 19.2127 1.0921 19.1819 1.01592C19.1512 0.939743 19.1058 0.870365 19.0482 0.811757Z" fill="#686FFD"/>
</svg>
