<svg width="12" height="13" viewBox="0 0 12 13" fill="none" xmlns="http://www.w3.org/2000/svg">
<path d="M11.3538 3.64625L7.85375 0.14625C7.80728 0.099833 7.75212 0.063026 7.69143 0.037932C7.63073 0.0128379 7.56568 -5.14929e-05 7.5 1.54599e-07H1.5C1.23478 1.54599e-07 0.98043 0.105357 0.792893 0.292893C0.605357 0.48043 0.5 0.734784 0.5 1V12C0.5 12.2652 0.605357 12.5196 0.792893 12.7071C0.98043 12.8946 1.23478 13 1.5 13H10.5C10.7652 13 11.0196 12.8946 11.2071 12.7071C11.3946 12.5196 11.5 12.2652 11.5 12V4C11.5001 3.93432 11.4872 3.86927 11.4621 3.80858C11.437 3.74788 11.4002 3.69272 11.3538 3.64625ZM8 1.70688L9.79313 3.5H8V1.70688ZM10.5 12H1.5V1H7V4C7 4.13261 7.05268 4.25979 7.14645 4.35355C7.24021 4.44732 7.36739 4.5 7.5 4.5H10.5V12ZM7.85375 7.14625C7.90021 7.1927 7.93706 7.24786 7.9622 7.30855C7.98734 7.36925 8.00028 7.4343 8.00028 7.5C8.00028 7.5657 7.98734 7.63075 7.9622 7.69145C7.93706 7.75214 7.90021 7.8073 7.85375 7.85375C7.8073 7.90021 7.75214 7.93706 7.69145 7.9622C7.63075 7.98734 7.5657 8.00028 7.5 8.00028C7.4343 8.00028 7.36925 7.98734 7.30855 7.9622C7.24786 7.93706 7.1927 7.90021 7.14625 7.85375L6.5 7.20687V10C6.5 10.1326 6.44732 10.2598 6.35355 10.3536C6.25979 10.4473 6.13261 10.5 6 10.5C5.86739 10.5 5.74021 10.4473 5.64645 10.3536C5.55268 10.2598 5.5 10.1326 5.5 10V7.20687L4.85375 7.85375C4.8073 7.90021 4.75214 7.93706 4.69145 7.9622C4.63075 7.98734 4.5657 8.00028 4.5 8.00028C4.4343 8.00028 4.36925 7.98734 4.30855 7.9622C4.24786 7.93706 4.1927 7.90021 4.14625 7.85375C4.09979 7.8073 4.06294 7.75214 4.0378 7.69145C4.01266 7.63075 3.99972 7.5657 3.99972 7.5C3.99972 7.4343 4.01266 7.36925 4.0378 7.30855C4.06294 7.24786 4.09979 7.1927 4.14625 7.14625L5.64625 5.64625C5.69269 5.59976 5.74783 5.56288 5.80853 5.53772C5.86923 5.51256 5.93429 5.49961 6 5.49961C6.06571 5.49961 6.13077 5.51256 6.19147 5.53772C6.25217 5.56288 6.30731 5.59976 6.35375 5.64625L7.85375 7.14625Z" fill="#191919"/>
</svg>
