<svg width="18" height="16" viewBox="0 0 18 16" fill="none" xmlns="http://www.w3.org/2000/svg">
<path d="M7.95142 6.375C7.95142 6.18958 8.0064 6.00832 8.10941 5.85415C8.21243 5.69998 8.35884 5.57982 8.53015 5.50886C8.70146 5.43791 8.88996 5.41934 9.07181 5.45551C9.25367 5.49169 9.42072 5.58098 9.55183 5.71209C9.68294 5.8432 9.77223 6.01024 9.8084 6.1921C9.84458 6.37396 9.82601 6.56246 9.75505 6.73377C9.6841 6.90507 9.56393 7.05149 9.40976 7.1545C9.25559 7.25752 9.07434 7.3125 8.88892 7.3125C8.64028 7.3125 8.40182 7.21373 8.226 7.03791C8.05019 6.8621 7.95142 6.62364 7.95142 6.375ZM5.45142 7.3125C5.63684 7.3125 5.81809 7.25752 5.97226 7.1545C6.12643 7.05149 6.2466 6.90507 6.31755 6.73377C6.38851 6.56246 6.40708 6.37396 6.3709 6.1921C6.33473 6.01024 6.24544 5.8432 6.11433 5.71209C5.98322 5.58098 5.81617 5.49169 5.63431 5.45551C5.45246 5.41934 5.26396 5.43791 5.09265 5.50886C4.92134 5.57982 4.77493 5.69998 4.67191 5.85415C4.5689 6.00832 4.51392 6.18958 4.51392 6.375C4.51392 6.62364 4.61269 6.8621 4.7885 7.03791C4.96432 7.21373 5.20278 7.3125 5.45142 7.3125ZM12.3264 7.3125C12.5118 7.3125 12.6931 7.25752 12.8473 7.1545C13.0014 7.05149 13.1216 6.90507 13.1926 6.73377C13.2635 6.56246 13.2821 6.37396 13.2459 6.1921C13.2097 6.01024 13.1204 5.8432 12.9893 5.71209C12.8582 5.58098 12.6912 5.49169 12.5093 5.45551C12.3275 5.41934 12.139 5.43791 11.9677 5.50886C11.7963 5.57982 11.6499 5.69998 11.5469 5.85415C11.4439 6.00832 11.3889 6.18958 11.3889 6.375C11.3889 6.62364 11.4877 6.8621 11.6635 7.03791C11.8393 7.21373 12.0778 7.3125 12.3264 7.3125ZM17.0139 1.375V11.375C17.0139 11.7065 16.8822 12.0245 16.6478 12.2589C16.4134 12.4933 16.0954 12.625 15.7639 12.625H11.0428L9.97407 14.4953C9.86472 14.6866 9.70676 14.8455 9.5162 14.9561C9.32563 15.0666 9.10923 15.1249 8.88892 15.1249C8.6686 15.1249 8.4522 15.0666 8.26164 14.9561C8.07107 14.8455 7.91311 14.6866 7.80376 14.4953L6.73501 12.625H2.01392C1.6824 12.625 1.36445 12.4933 1.13003 12.2589C0.895612 12.0245 0.763916 11.7065 0.763916 11.375V1.375C0.763916 1.04348 0.895612 0.725537 1.13003 0.491116C1.36445 0.256696 1.6824 0.125 2.01392 0.125H15.7639C16.0954 0.125 16.4134 0.256696 16.6478 0.491116C16.8822 0.725537 17.0139 1.04348 17.0139 1.375ZM15.7639 1.375H2.01392V11.375H7.09751C7.20817 11.374 7.31711 11.4024 7.41319 11.4573C7.50927 11.5122 7.58906 11.5917 7.64438 11.6875L8.89439 13.875L10.1444 11.6875C10.1997 11.5917 10.2795 11.5122 10.3756 11.4573C10.4717 11.4024 10.5806 11.374 10.6913 11.375H15.7639V1.375Z" fill="#00D722"/>
</svg>
